<svg width="24" height="24" viewBox="0 0 24 24" fill="none" xmlns="http://www.w3.org/2000/svg"><path fill-rule="evenodd" clip-rule="evenodd" d="M16.786 3.725a1.75 1.75 0 00-2.846.548L12.347 7.99A4.745 4.745 0 008.07 9.291l-1.71 1.71a.75.75 0 000 1.06l2.495 2.496-5.385 5.386a.75.75 0 101.06 1.06l5.386-5.385 2.495 2.495a.75.75 0 001.061 0l1.71-1.71a4.745 4.745 0 001.302-4.277l3.716-1.592a1.75 1.75 0 00.548-2.846l-3.962-3.963zm-1.468 1.139a.25.25 0 01.407-.078l3.963 3.962a.25.25 0 01-.079.407l-4.315 1.85a.75.75 0 00-.41.941 3.25 3.25 0 01-.763 3.396l-1.18 1.18-4.99-4.99 1.18-1.18a3.25 3.25 0 013.396-.762.75.75 0 00.942-.41l1.85-4.316z" fill="#000"/></svg>