<svg xmlns="http://www.w3.org/2000/svg" width="1000" height="487.98"><g><path d="M104.813 157.38c-7.48 41.713-1.493 74.078 17.397 96.713 17.772 21.138 46.77 32.362 84.183 32.362 20.952 0 43.026-3.366 66.034-9.915l5.616-1.682 8.976-50.886-14.965 4.679c-10.102 3.366-20.763 4.866-33.485 4.866-22.076 0-38.535-6.362-49.202-19.082-12.154-14.594-16.647-37.228-12.154-62.483 4.299-23.76 17.208-49.012 41.152-49.012 9.352 0 11.972 3.179 12.91 4.3 2.617 3.182 5.238 10.291 2.43 26.567l-2.054 11.034h71.645l1.309-7.855c4.679-27.126.748-48.638-11.974-63.604-12.909-15.527-34.604-23.383-64.348-23.383-65.48 0-111.686 40.033-123.47 107.38m395.093-80.63C484.943 58.977 462.119 50 432.376 50c-64.357 0-108.69 42.462-121.787 116.545-7.106 40.781-1.68 72.022 15.904 92.972 14.963 17.96 37.6 26.939 67.53 26.939 64.167 0 108.503-42.464 121.598-116.543 7.295-40.782 1.868-72.024-15.715-93.162m-55.186 89.794c-8.418 47.514-21.326 66.973-44.708 66.973-7.486 0-12.91-1.871-16.09-5.802-9.354-11.038-5.799-38.35-2.241-57.803 8.416-47.705 21.32-66.972 44.706-66.972 7.485 0 12.722 1.87 16.088 5.798 9.167 11.04 5.615 38.35 2.245 57.806M716.722 76.75c-14.965-17.774-37.603-26.751-67.533-26.751-64.164 0-108.5 42.462-121.598 116.545-7.293 40.781-1.87 72.022 15.713 92.972 14.97 17.96 37.604 26.939 67.534 26.939 64.166 0 108.687-42.464 121.597-116.543 7.296-40.782 2.059-72.024-15.713-93.162m-55.186 89.794c-8.42 47.514-21.327 66.973-44.709 66.973-7.484 0-12.723-1.871-16.091-5.802-9.165-11.038-5.611-38.35-2.247-57.803 8.42-47.705 21.33-66.972 44.71-66.972 7.485 0 12.726 1.87 16.09 5.798 9.354 11.04 5.799 38.35 2.247 57.806m271.628-95.966c-11.412-13.66-28.249-20.58-49.95-20.58-17.023 0-32.738 7.483-45.085 16.462 0-.187 2.057-11.786 2.057-11.786h-68.28L715.41 375.129h68.283s13.468-76.138 18.516-104.952c13.097 12.912 29.37 16.278 42.466 16.278 50.509 0 88.488-43.59 101.394-116.543 8.043-46.209 3.74-79.694-12.906-99.334m-57.994 95.966c-8.042 45.082-19.64 63.416-40.221 63.416-6.92 0-9.913-2.62-11.6-4.677-4.111-4.866-9.912-18.522-3.365-55.371 5.423-30.68 20.202-63.606 40.033-63.606 7.297 0 10.476 2.806 12.345 4.864 4.68 5.613 8.98 19.83 2.808 55.374" fill="#f39300"/><path d="M424.516 314.141C270.37 325.556 147.653 362.406 51.686 414.41L50 437.981c95.407-51.443 221.118-77.445 374.516-88.669 139.367-10.102 248.427 10.1 269.196 12.533L704 313.397c-20.765-2.25-139.551-9.358-279.484.744" fill="#e1001a"/></g></svg>