<svg width="202" height="118" xmlns="http://www.w3.org/2000/svg"><g><path fill="#FFF" d="M0 0h202v118H0z"/><path d="M0 0h4v100H0zM6 0h2v100H6zM12 0h6v100h-6zM22 0h8v100h-8zM32 0h2v100h-2zM40 0h2v100h-2zM44 0h4v100h-4zM52 0h4v100h-4zM60 0h4v100h-4zM66 0h4v100h-4zM76 0h2v100h-2zM82 0h2v100h-2zM88 0h2v100h-2zM94 0h4v100h-4zM102 0h2v100h-2zM110 0h6v100h-6zM120 0h2v100h-2zM124 0h4v100h-4zM132 0h6v100h-6zM140 0h2v100h-2zM148 0h4v100h-4zM154 0h6v100h-6zM162 0h2v100h-2zM166 0h8v100h-8zM176 0h4v100h-4zM186 0h6v100h-6zM194 0h2v100h-2zM198 0h4v100h-4z"/><text x="101" y="118" text-anchor="middle" font-family="Helvetica" font-size="16">980211062555</text></g></svg>